# xmcd
#
# Track frame offsets:
#	150
#	12786
#	27344
#	51894
#	79655
#	100332
#	111761
#	126715
#	138057
#	163701
#	202288
#	224520
#	248849
#	277070
#	306313
#	329523
#
# Disc length: 4685 seconds
#
# Revision: 1
# Processed by: cddbd v1.5.2PL0 Copyright (c) Steve Scherf et al.
# Submitted via: audiograbber 1.83.01
#
DISCID=f4124b10
DTITLE=Bob Dylan - Bob Dylan -The Best Of 
DYEAR=2005
DGENRE=Folk
TTITLE0=Bob Dylan - Blowin' In The Wind
TTITLE1=Bob Dylan - The Times They Are A-Changin'
TTITLE2=Bob Dylan - Mr. Tamboruine Man
TTITLE3=Bob Dylan - Like A Rolling Stone
TTITLE4=Bob Dylan - Rainy Day Women #12 and 35
TTITLE5=Bob Dylan - All Along The Watchtower
TTITLE6=Bob Dylan - Lay, Lady, Lay
TTITLE7=Bob Dylan - Knockin' On Heaven's Door
TTITLE8=Bob Dylan - Tangled Up In Blue
TTITLE9=Bob Dylan - Hurricane
TTITLE10=Bob Dylan - Forever Young
TTITLE11=Bob Dylan - Gotta Serve Somebody
TTITLE12=Bob Dylan - Jokerman
TTITLE13=Bob Dylan - Not Dark Yet
TTITLE14=Bob Dylan - Things Have Changed
TTITLE15=Bob Dylan - Summer Days
EXTD=
EXTT0=
EXTT1=
EXTT2=
EXTT3=
EXTT4=
EXTT5=
EXTT6=
EXTT7=
EXTT8=
EXTT9=
EXTT10=
EXTT11=
EXTT12=
EXTT13=
EXTT14=
EXTT15=
PLAYORDER=
